<svg xmlns="http://www.w3.org/2000/svg" xmlns:xlink="http://www.w3.org/1999/xlink" version="1.1" width="3149.3101565776196" height="880.9299238079559" viewBox="0 0 3149.3101565776196 880.9299238079559">
  <g transform="scale(7.465507828880982) translate(10, 10)">
    <defs id="SvgjsDefs1096">
      <linearGradient id="symbolGradient" x1="0%" y1="0%" x2="100%" y2="0%">
        <stop offset="0%" stop-color="#CD6E44"/>
        <stop offset="100%" stop-color="#E6A954"/>
      </linearGradient>
    </defs>
    <g id="SvgjsG1097" featureKey="sloganFeature-0" transform="matrix(1.2622721539190298,0,0,1.2622721539190298,75.64656353206743,72.40112225938164)" fill="#a6a6a6">
      <path d="M5.82 20.26 c-3.46 0 -5.36 -1.72 -5.54 -4.54 l3.1 0 c0.06 1.04 0.66 2.08 2.52 2.08 c1.56 0 2.36 -0.62 2.36 -1.48 c0 -1.06 -1.34 -1.34 -2.9 -1.68 c-2.18 -0.52 -4.84 -1.16 -4.84 -4.42 c0 -2.4 1.86 -4.18 5.14 -4.18 c3.34 0 5.18 1.82 5.38 4.5 l-3.12 0 c-0.06 -1.1 -0.66 -1.98 -2.34 -1.98 c-1.24 0 -2.06 0.5 -2.06 1.4 c0 1.16 1.36 1.48 2.92 1.84 c2.24 0.5 4.92 1.06 4.92 4.14 c0 2.5 -1.96 4.32 -5.54 4.32 z M22.874 14.9 l-1.78 -5.36 l-1.78 5.36 l3.56 0 z M24.573999999999998 20 l-0.78 -2.36 l-5.38 0 l-0.78 2.36 l-3.18 0 l4.84 -13.7 l3.8 0 l4.82 13.7 l-3.34 0 z M37.308 20.24 c-3.84 0 -5.94 -2.28 -5.94 -5.68 l0 -8.26 l3.1 0 l0 7.84 c0 2.08 1.02 3.22 2.82 3.22 c1.78 0 2.78 -1.14 2.78 -3.22 l0 -7.84 l3.1 0 l0 8.26 c0 3.4 -2.08 5.68 -5.86 5.68 z M55.842 20 l-5.52 -8.68 l0 8.68 l-2.98 0 l0 -13.7 l3.38 0 l5.52 8.7 l0 -8.7 l2.98 0 l0 13.7 l-3.38 0 z M71.176 14.9 l-1.78 -5.36 l-1.78 5.36 l3.56 0 z M72.876 20 l-0.78 -2.36 l-5.38 0 l-0.78 2.36 l-3.18 0 l4.84 -13.7 l3.8 0 l4.82 13.7 l-3.34 0 z M90.484 9.84 c0 0.62 0.36 1.2 0.84 1.74 c1.1 -0.44 1.96 -0.94 1.96 -1.94 c0 -0.76 -0.54 -1.28 -1.32 -1.28 s-1.48 0.52 -1.48 1.48 z M93.28399999999999 17.32 l-2.9 -2.98 c-0.8 0.42 -1.36 0.92 -1.36 1.76 c0 1.08 0.96 1.68 2.28 1.68 c0.76 0 1.4 -0.16 1.98 -0.46 z M95.92399999999999 20 l-0.78 -0.8 c-1.06 0.64 -2.38 1.02 -3.92 1.02 c-3.02 0 -5.12 -1.42 -5.12 -4.06 c0 -1.88 1.1 -2.94 2.74 -3.66 c-0.56 -0.72 -1.06 -1.6 -1.06 -2.62 c0 -2.26 1.68 -3.84 4.18 -3.84 c2.34 0 3.96 1.46 3.96 3.42 c0 2.12 -1.42 3.1 -3.06 3.8 l2.32 2.3 c0.8 -1.2 1.26 -2.78 1.34 -4.18 l2.74 0 c-0.16 2.04 -0.8 4.34 -2.12 6.08 l2.56 2.54 l-3.78 0 z M115.59199999999998 16.18 l-2.52 0 l0 3.82 l-3.1 0 l0 -13.7 l5.9 0 c3.12 0 4.88 2.18 4.88 4.84 c0 2.8 -1.94 5.04 -5.16 5.04 z M115.41199999999999 9.14 l-2.34 0 l0 4.2 l2.44 0 c1.32 0 2.12 -0.88 2.12 -2.12 s-0.78 -2.08 -2.22 -2.08 z M124.666 20 l0 -13.7 l3.1 0 l0 10.86 l6.36 0 l0 2.84 l-9.46 0 z M143.98 20.24 c-3.84 0 -5.94 -2.28 -5.94 -5.68 l0 -8.26 l3.1 0 l0 7.84 c0 2.08 1.02 3.22 2.82 3.22 c1.78 0 2.78 -1.14 2.78 -3.22 l0 -7.84 l3.1 0 l0 8.26 c0 3.4 -2.08 5.68 -5.86 5.68 z M162.514 20 l-5.52 -8.68 l0 8.68 l-2.98 0 l0 -13.7 l3.38 0 l5.52 8.7 l0 -8.7 l2.98 0 l0 13.7 l-3.38 0 z M184.148 13.120000000000001 c0 4.1 -2.84 7.16 -6.94 7.16 c-4.34 0 -7.38 -3.18 -7.38 -7.14 c0 -3.9 2.94 -7.12 7.38 -7.12 c2.56 0 4.54 1.04 5.78 2.82 l-2.28 1.94 c-0.92 -1.16 -2.06 -1.86 -3.5 -1.86 c-2.38 0 -4.22 1.76 -4.22 4.3 c0 2.4 1.72 4.18 4.14 4.18 c1.84 0 3.04 -0.92 3.56 -2.38 l-3.64 0 l0 -2.7 l7.1 0 l0 0.8 z M188.042 20 l0 -13.7 l10.02 0 l0 2.8 l-6.92 0 l0 2.58 l6.4 0 l0 2.72 l-6.4 0 l0 2.8 l6.94 0 l0 2.8 l-10.04 0 z"/>
    </g>
    <g id="SvgjsG1098" featureKey="nameLeftFeature-0" transform="matrix(2.5245441390026437,0,0,2.5245441390026437,-0.45441751165375277,-0.19775807623696373)" fill="#000">
      <path d="M8.28 20 l-3.12 0 l0 -5.12 l-4.98 -8.58 l3.42 0 l3.16 5.76 l3.18 -5.76 l3.32 0 l-4.98 8.6 l0 5.1 z M20.12 20.24 c-3.84 0 -5.94 -2.28 -5.94 -5.68 l0 -8.26 l3.1 0 l0 7.84 c0 2.08 1.02 3.22 2.82 3.22 c1.78 0 2.78 -1.14 2.78 -3.22 l0 -7.84 l3.1 0 l0 8.26 c0 3.4 -2.08 5.68 -5.86 5.68 z M34.22 20 l-3.1 0 l0 -10.86 l-4.08 0 l0 -2.84 l11.26 0 l0 2.84 l-4.08 0 l0 10.86 z M46.38 20.28 c-4 0 -7.26 -3.06 -7.26 -7.12 c0 -4.08 3.26 -7.14 7.26 -7.14 c4.1 0 7.26 3.06 7.26 7.12 c0 4.08 -3.16 7.14 -7.26 7.14 z M46.38 17.4 c2.32 0 4.1 -1.84 4.1 -4.26 c0 -2.38 -1.78 -4.24 -4.1 -4.24 s-4.1 1.86 -4.1 4.26 s1.78 4.24 4.1 4.24 z M60.38 9.14 l-2.28 0 l0 3.66 l2.18 0 c1.34 0 2.16 -0.76 2.16 -1.82 s-0.68 -1.84 -2.06 -1.84 z M58.1 15.34 l0 4.66 l-3.1 0 l0 -13.7 l5.84 0 c2.92 0 4.72 1.88 4.72 4.56 c0 2.14 -1.42 3.92 -3.74 4.38 l4.36 4.76 l-4.04 0 z M70.4 20 l-3.1 0 l0 -13.7 l3.1 0 l0 13.7 z"/>
    </g>
    <g id="SvgjsG1099" featureKey="inlineSymbolFeature-0" transform="matrix(1.305545265836362,0,0,1.305545265836362,190.4722736708182,-7.833266614758216)" fill="url(#symbolGradient)">
      <g stroke="none" stroke-width="1" fill-rule="evenodd">
        <g>
          <path d="M40.5789349,48.2699132 C43.9825808,46.095434 44.1716433,46.2839757 42.3752891,47.607934 C40.5789349,48.9308507 43.7935183,47.0407465 42.0919558,48.2699132 L41.3357058,49.0261632 C41.3357058,49.0261632 40.1065391,50.4443924 39.2554974,50.5386632 C38.4044558,50.632934 40.2002891,50.4443924 38.9716433,51.0121007 C37.7424766,51.5787674 28.7502891,55.636059 14.2008099,45.0553299 C18.2669558,51.8626215 25.4518516,54.8881424 31.5028933,54.9824132 C31.5028933,54.9824132 29.6112266,54.9824132 30.6518516,55.1714757 C31.6919558,55.3605382 30.1789349,56.7782465 21.2914349,53.4699132 C21.6706016,54.320434 21.7648724,54.6037674 22.8049766,55.1714757 C22.8049766,55.1714757 11.1752891,51.2001215 7.11070578,39.4772049 C7.20497661,40.8949132 7.29924745,42.5027257 7.29924745,42.5027257 C7.29924745,42.5027257 1.43674745,32.1022049 8.43414328,19.2443924 C15.4304974,6.38657986 30.8414349,5.91418402 32.9211224,6.00845486 C35.0013308,6.10272569 46.6294558,8.75012152 49.2768516,11.492309 C51.9247683,14.2334549 47.9539349,12.4376215 47.9539349,12.4376215 C47.9539349,12.4376215 46.6294558,13.1938715 48.8049766,14.3277257 C50.9789349,15.4631424 53.3424766,19.2443924 51.5456016,17.8261632 C49.7497683,16.4084549 52.3966433,19.5282465 52.6804974,19.717309 C52.9638308,19.9063715 48.7096641,17.8261632 49.8445599,19.0553299 C50.9789349,20.2839757 55.8950808,25.673559 54.2883099,27.2813715 C52.6804974,28.8881424 52.1127891,24.4443924 51.8294558,24.161059 C51.5456016,23.876684 52.3034141,30.6844965 51.8294558,31.8183507 C51.3565391,32.9532465 51.4513308,29.2667882 50.5065391,28.1318924 C49.5612266,26.9975174 49.2768516,27.0917882 48.6148724,27.0917882 C47.9539349,27.0917882 46.1575808,25.2959549 45.9679974,24.2553299 C45.7789349,23.2152257 45.2117474,22.9313715 44.3601849,22.0808507 C43.5096641,21.229809 42.1862266,20.3792882 40.5789349,20.473559 C38.9716433,20.5683507 39.8226849,18.5824132 37.0804974,18.5824132 C34.3388308,18.5824132 32.7310183,18.1105382 30.3679974,19.1501215 C28.0049766,20.1902257 23.6554974,21.4188715 23.2768516,21.5131424 C22.8987266,21.607934 27.2476849,19.1501215 27.9101849,18.7714757 C28.5716433,18.3938715 17.6044558,21.229809 15.8081016,25.5787674 C14.0112266,29.9287674 12.4049766,37.3969965 18.5502891,44.2037674 C24.6956016,51.0121007 35.6622683,51.6730382 40.5789349,48.2699132"/>
        </g>
      </g>
    </g>
    <g id="SvgjsG1100" featureKey="nameRightFeature-0" transform="matrix(2.5316453522934323,0,0,2.5316453522934323,269.8987358920596,-0.2911366240951505)" fill="#393e46">
      <path d="M4.78 20 l0 -13.7 l3.1 0 l0 10.86 l6.36 0 l0 2.84 l-9.46 0 z M23.36 14.9 l-1.78 -5.36 l-1.78 5.36 l3.56 0 z M25.060000000000002 20 l-0.78 -2.36 l-5.38 0 l-0.78 2.36 l-3.18 0 l4.84 -13.7 l3.8 0 l4.82 13.7 l-3.34 0 z M29.360000000000003 20 l0 -13.7 l5.64 0 c3.06 0 4.42 1.7 4.42 3.72 c0 1.22 -0.58 2.2 -1.72 2.78 c1.72 0.52 2.64 1.68 2.64 3.28 c0 2.24 -1.58 3.92 -4.82 3.92 l-6.16 0 z M34.78 8.96 l-2.32 0 l0 2.8 l2.32 0 c1.06 0 1.6 -0.6 1.6 -1.42 c0 -0.8 -0.54 -1.38 -1.6 -1.38 z M35.34 14.379999999999999 l-2.88 0 l0 2.96 l2.9 0 c1.2 0 1.88 -0.6 1.88 -1.44 c0 -0.9 -0.68 -1.52 -1.9 -1.52 z M46.580000000000005 20.26 c-3.46 0 -5.36 -1.72 -5.54 -4.54 l3.1 0 c0.06 1.04 0.66 2.08 2.52 2.08 c1.56 0 2.36 -0.62 2.36 -1.48 c0 -1.06 -1.34 -1.34 -2.9 -1.68 c-2.18 -0.52 -4.84 -1.16 -4.84 -4.42 c0 -2.4 1.86 -4.18 5.14 -4.18 c3.34 0 5.18 1.82 5.38 4.5 l-3.12 0 c-0.06 -1.1 -0.66 -1.98 -2.34 -1.98 c-1.24 0 -2.06 0.5 -2.06 1.4 c0 1.16 1.36 1.48 2.92 1.84 c2.24 0.5 4.92 1.06 4.92 4.14 c0 2.5 -1.96 4.32 -5.54 4.32 z"/>
    </g>
  </g>
</svg>